<?xml version="1.0" standalone="no"?>
<!DOCTYPE svg PUBLIC "-//W3C//DTD SVG 20010904//EN"
 "http://www.w3.org/TR/2001/REC-SVG-20010904/DTD/svg10.dtd">
<svg version="1.0" xmlns="http://www.w3.org/2000/svg"
 width="360.000000pt" height="360.000000pt" viewBox="0 0 360.000000 360.000000"
 preserveAspectRatio="xMidYMid meet">
<metadata>
Created by potrace 1.11, written by Peter Selinger 2001-2013
</metadata>
<g transform="translate(0.000000,360.000000) scale(0.100000,-0.100000)"
fill="#000000" stroke="none">
<path d="M1649 2615 c-228 -45 -423 -177 -544 -365 -273 -427 -111 -987 346
-1199 115 -53 204 -74 331 -77 238 -5 438 75 607 244 121 121 194 260 229 432
15 73 8 282 -11 355 -77 288 -305 517 -595 596 -96 26 -269 33 -363 14z m184
-186 c20 -5 37 -14 37 -19 0 -12 -29 -135 -36 -153 -3 -10 7 -17 36 -25 48
-12 50 -9 76 95 l17 70 49 -13 c28 -7 52 -15 55 -17 2 -3 -5 -41 -16 -85 -12
-44 -21 -83 -21 -85 0 -3 25 -17 55 -31 79 -36 121 -71 146 -122 24 -51 22
-119 -5 -172 -17 -34 -66 -77 -96 -87 -19 -6 -17 -9 19 -36 52 -37 75 -81 74
-144 -2 -109 -60 -201 -148 -234 -43 -16 -72 -20 -139 -17 -46 2 -88 6 -94 10
-15 9 -26 -16 -47 -102 -17 -70 -18 -73 -44 -68 -47 7 -81 18 -81 25 0 4 9 42
21 86 11 43 16 81 12 86 -4 4 -24 10 -43 14 l-35 6 -24 -90 -23 -89 -51 15
c-29 8 -53 16 -54 17 -1 0 7 37 18 81 10 44 19 85 19 91 0 6 -45 21 -101 34
-55 13 -102 27 -105 31 -2 4 7 33 21 64 21 50 28 56 47 52 90 -21 103 -17 112
30 2 10 9 38 16 63 7 25 13 52 15 60 2 8 17 71 35 140 54 211 57 232 36 253
-16 15 -76 37 -104 37 -8 0 -11 7 -8 18 3 9 10 36 16 60 9 33 15 42 28 38 67
-20 193 -46 200 -42 5 3 17 41 27 86 20 87 21 88 88 69z"/>
<path d="M1791 2073 c-25 -97 -41 -165 -41 -172 0 -12 119 -35 168 -33 76 3
112 34 112 97 0 35 -6 49 -27 70 -30 27 -112 62 -168 71 -32 5 -34 3 -44 -33z"/>
<path d="M1720 1786 c0 -1 -13 -54 -29 -117 -17 -63 -27 -117 -23 -121 14 -13
119 -35 182 -37 50 -1 72 3 98 19 88 54 59 157 -57 206 -36 15 -171 55 -171
50z"/>
<path d="M637 2435 c-34 -12 -50 -22 -93 -60 -21 -20 -348 -331 -424 -406 -89
-86 -107 -126 -95 -206 6 -46 14 -55 143 -183 251 -247 420 -403 452 -417 123
-51 257 44 252 180 -3 71 -5 72 -321 374 l-85 81 40 37 c278 262 344 329 354
360 49 149 -82 289 -223 240z"/>
<path d="M2875 2442 c-83 -17 -146 -91 -146 -170 -1 -80 19 -107 197 -277 92
-88 176 -169 186 -180 19 -20 18 -21 -79 -114 -310 -296 -305 -290 -305 -372
2 -134 143 -221 260 -160 20 11 71 52 112 91 338 323 450 435 464 464 34 72
14 148 -57 219 -65 65 -404 388 -455 434 -61 56 -119 78 -177 65z"/>
</g>
</svg>
